<mxfile host="Electron" modified="2023-12-03T15:02:24.063Z" agent="Mozilla/5.0 (Windows NT 10.0; Win64; x64) AppleWebKit/537.36 (KHTML, like Gecko) draw.io/21.1.2 Chrome/106.0.5249.199 Electron/21.4.3 Safari/537.36" etag="VkhZwse8OZakUZMxUo6O" version="21.1.2" type="device">
  <diagram name="第 1 页" id="DwIBq9qgxs8MnJgK1wMy">
    <mxGraphModel dx="737" dy="414" grid="1" gridSize="10" guides="1" tooltips="1" connect="1" arrows="1" fold="1" page="1" pageScale="1" pageWidth="827" pageHeight="1169" math="0" shadow="0">
      <root>
        <mxCell id="0" />
        <mxCell id="1" parent="0" />
        <mxCell id="QcmDE0D3rVtiZUfhMgvs-1" value="&lt;font style=&quot;font-size: 18px;&quot;&gt;开始&lt;/font&gt;" style="rounded=0;whiteSpace=wrap;html=1;" vertex="1" parent="1">
          <mxGeometry x="80" y="360" width="80" height="40" as="geometry" />
        </mxCell>
        <mxCell id="QcmDE0D3rVtiZUfhMgvs-2" value="" style="endArrow=classic;html=1;rounded=0;" edge="1" parent="1">
          <mxGeometry width="50" height="50" relative="1" as="geometry">
            <mxPoint x="160" y="380" as="sourcePoint" />
            <mxPoint x="240" y="320" as="targetPoint" />
          </mxGeometry>
        </mxCell>
        <mxCell id="QcmDE0D3rVtiZUfhMgvs-3" value="" style="endArrow=classic;html=1;rounded=0;" edge="1" parent="1">
          <mxGeometry width="50" height="50" relative="1" as="geometry">
            <mxPoint x="160" y="380" as="sourcePoint" />
            <mxPoint x="240" y="440" as="targetPoint" />
          </mxGeometry>
        </mxCell>
        <mxCell id="QcmDE0D3rVtiZUfhMgvs-4" value="&lt;font style=&quot;font-size: 14px;&quot;&gt;架构设计&lt;/font&gt;" style="rounded=0;whiteSpace=wrap;html=1;" vertex="1" parent="1">
          <mxGeometry x="360" y="300" width="80" height="40" as="geometry" />
        </mxCell>
        <mxCell id="QcmDE0D3rVtiZUfhMgvs-5" value="&lt;span style=&quot;font-size: 14px;&quot;&gt;撰写文档&lt;/span&gt;" style="rounded=0;whiteSpace=wrap;html=1;" vertex="1" parent="1">
          <mxGeometry x="480" y="420" width="80" height="40" as="geometry" />
        </mxCell>
        <mxCell id="QcmDE0D3rVtiZUfhMgvs-7" value="&lt;font style=&quot;font-size: 14px;&quot;&gt;数据库设计&lt;/font&gt;" style="rounded=0;whiteSpace=wrap;html=1;" vertex="1" parent="1">
          <mxGeometry x="480" y="300" width="80" height="40" as="geometry" />
        </mxCell>
        <mxCell id="QcmDE0D3rVtiZUfhMgvs-9" value="&lt;font style=&quot;font-size: 14px;&quot;&gt;接口文档&lt;/font&gt;" style="rounded=0;whiteSpace=wrap;html=1;" vertex="1" parent="1">
          <mxGeometry x="240" y="420" width="80" height="40" as="geometry" />
        </mxCell>
        <mxCell id="QcmDE0D3rVtiZUfhMgvs-12" value="" style="endArrow=classic;html=1;rounded=0;" edge="1" parent="1">
          <mxGeometry width="50" height="50" relative="1" as="geometry">
            <mxPoint x="320" y="319.43" as="sourcePoint" />
            <mxPoint x="360" y="319.43" as="targetPoint" />
          </mxGeometry>
        </mxCell>
        <mxCell id="QcmDE0D3rVtiZUfhMgvs-14" value="&lt;font style=&quot;font-size: 14px;&quot;&gt;信息维护模块&lt;/font&gt;" style="rounded=0;whiteSpace=wrap;html=1;" vertex="1" parent="1">
          <mxGeometry x="610" y="360" width="120" height="40" as="geometry" />
        </mxCell>
        <mxCell id="QcmDE0D3rVtiZUfhMgvs-16" value="&lt;font style=&quot;font-size: 14px;&quot;&gt;原型设计&lt;/font&gt;" style="rounded=0;whiteSpace=wrap;html=1;" vertex="1" parent="1">
          <mxGeometry x="240" y="300" width="80" height="40" as="geometry" />
        </mxCell>
        <mxCell id="QcmDE0D3rVtiZUfhMgvs-17" value="&lt;span style=&quot;font-size: 14px;&quot;&gt;信息收集模块&lt;/span&gt;" style="rounded=0;whiteSpace=wrap;html=1;" vertex="1" parent="1">
          <mxGeometry x="780" y="360" width="120" height="40" as="geometry" />
        </mxCell>
        <mxCell id="QcmDE0D3rVtiZUfhMgvs-18" value="&lt;span style=&quot;font-size: 14px;&quot;&gt;信息发布模块&lt;/span&gt;" style="rounded=0;whiteSpace=wrap;html=1;" vertex="1" parent="1">
          <mxGeometry x="830" y="450" width="120" height="40" as="geometry" />
        </mxCell>
        <mxCell id="QcmDE0D3rVtiZUfhMgvs-19" value="" style="endArrow=classic;html=1;rounded=0;" edge="1" parent="1">
          <mxGeometry width="50" height="50" relative="1" as="geometry">
            <mxPoint x="440" y="320" as="sourcePoint" />
            <mxPoint x="480" y="320" as="targetPoint" />
          </mxGeometry>
        </mxCell>
        <mxCell id="QcmDE0D3rVtiZUfhMgvs-20" value="" style="endArrow=classic;html=1;rounded=0;entryX=0;entryY=0.5;entryDx=0;entryDy=0;" edge="1" parent="1" target="QcmDE0D3rVtiZUfhMgvs-5">
          <mxGeometry width="50" height="50" relative="1" as="geometry">
            <mxPoint x="320" y="439.71" as="sourcePoint" />
            <mxPoint x="420" y="440" as="targetPoint" />
          </mxGeometry>
        </mxCell>
        <mxCell id="QcmDE0D3rVtiZUfhMgvs-21" value="" style="endArrow=classic;html=1;rounded=0;entryX=0;entryY=0.5;entryDx=0;entryDy=0;" edge="1" parent="1" target="QcmDE0D3rVtiZUfhMgvs-14">
          <mxGeometry width="50" height="50" relative="1" as="geometry">
            <mxPoint x="560" y="320" as="sourcePoint" />
            <mxPoint x="610" y="350" as="targetPoint" />
          </mxGeometry>
        </mxCell>
        <mxCell id="QcmDE0D3rVtiZUfhMgvs-22" value="" style="endArrow=classic;html=1;rounded=0;exitX=1;exitY=0.5;exitDx=0;exitDy=0;" edge="1" parent="1" source="QcmDE0D3rVtiZUfhMgvs-5">
          <mxGeometry width="50" height="50" relative="1" as="geometry">
            <mxPoint x="570" y="440" as="sourcePoint" />
            <mxPoint x="610" y="380" as="targetPoint" />
          </mxGeometry>
        </mxCell>
        <mxCell id="QcmDE0D3rVtiZUfhMgvs-25" value="" style="endArrow=classic;html=1;rounded=0;entryX=0;entryY=0.5;entryDx=0;entryDy=0;" edge="1" parent="1" target="QcmDE0D3rVtiZUfhMgvs-5">
          <mxGeometry width="50" height="50" relative="1" as="geometry">
            <mxPoint x="440" y="320" as="sourcePoint" />
            <mxPoint x="480" y="390" as="targetPoint" />
          </mxGeometry>
        </mxCell>
      </root>
    </mxGraphModel>
  </diagram>
</mxfile>
